# xmcd
#
# Track frame offsets: 
#        150
#        30371
#        59372
#        84501
#        116228
#        135559
#        160386
#        181751
#        209930
#        230216
#        253007
#        281810
#        302198
#        326930
#
# Disc length: 4627 seconds
#
# Revision: 0
# Processed by: cddbd v1.5.2PL0 Copyright (c) Steve Scherf et al.
# Submitted via: ExactAudioCopy v1.0b3
#
DISCID=d812110e
DTITLE=Grace Jones - Fame
DYEAR=1978
DGENRE=Disco
TTITLE0=Do Or Die
TTITLE1=Pride
TTITLE2=Fame
TTITLE3=Autumn Leaves
TTITLE4=All On A Summer's Night
TTITLE5=Am I Ever Gonna Fall In Love In New York City
TTITLE6=Below The Belt
TTITLE7=Do Or Die (12" Disco Version)
TTITLE8=Comme Un Oiseau Qui S'Envole (12" Disco Version)
TTITLE9=Anema E Core (Long Version)
TTITLE10=Do Or Die (Instrumental Version)
TTITLE11=Comme Un Oiseau Qui S'Envole (Instrumental Version)
TTITLE12=Am I Ever Gonna Fall In Love In New York City (Instrumental V
TTITLE12=ersion)
TTITLE13=Anema E Core (Instrumental Version)
EXTD=
EXTT0=
EXTT1=
EXTT2=
EXTT3=
EXTT4=
EXTT5=
EXTT6=
EXTT7=
EXTT8=
EXTT9=
EXTT10=
EXTT11=
EXTT12=
EXTT13=
PLAYORDER=
